PathFileType	4	(X/Y/Z)	Run_500 03
DataRate	CameraRate	NumFrames	NumMarkers	Units	OrigDataRate	OrigDataStartFrame	OrigNumFrames
100	100	7	45	mm	100	190	137
Frame#	Time	RASI			LPSI			RPSI			RTH1			RTH2			RTH3			LTH1			LTH2			LTH3			RTB1			RTB2			RTB3			RLMAL			RMMAL			LTB1			LTB2			LTB3			RCAL			RTOE			RMT5			LCAL			LTOE			LMT5			LACR			RACR			CLAV			C7			LPSH			RUA1			RUA2			RUA3			RLEL			RMEL			LUA1			LUA2			LUA3			LLEL			LMEL			RFAsuperior			RFAradius			RFAulna			LFAsuperior			LFAradius			LFAulna			LASI		
		X1	Y1	Z1	X2	Y2	Z2	X3	Y3	Z3	X4	Y4	Z4	X5	Y5	Z5	X6	Y6	Z6	X7	Y7	Z7	X8	Y8	Z8	X9	Y9	Z9	X10	Y10	Z10	X11	Y11	Z11	X12	Y12	Z12	X13	Y13	Z13	X14	Y14	Z14	X15	Y15	Z15	X16	Y16	Z16	X17	Y17	Z17	X18	Y18	Z18	X19	Y19	Z19	X20	Y20	Z20	X21	Y21	Z21	X22	Y22	Z22	X23	Y23	Z23	X24	Y24	Z24	X25	Y25	Z25	X26	Y26	Z26	X27	Y27	Z27	X28	Y28	Z28	X29	Y29	Z29	X30	Y30	Z30	X31	Y31	Z31	X32	Y32	Z32	X33	Y33	Z33	X34	Y34	Z34	X35	Y35	Z35	X36	Y36	Z36	X37	Y37	Z37	X38	Y38	Z38	X39	Y39	Z39	X40	Y40	Z40	X41	Y41	Z41	X42	Y42	Z42	X43	Y43	Z43	X44	Y44	Z44	X45	Y45	Z45	

190	  1.900000	937.322452	1028.232792	-224.396613	761.124849	1083.951421	-372.050120	770.610553	1075.658413	-283.150667	806.195161	768.248789	-185.908646	869.013086	689.427989	-213.032978	787.260355	604.266856	-227.060592	852.142963	825.127904	-500.797341	961.311726	746.796727	-492.920547	943.981697	635.806673	-476.985869	652.516997	482.185788	-274.673723	605.126836	541.706260	-237.605282	478.352052	545.708223	-279.142050	385.456847	618.697212	-268.073417	391.561826	576.345212	-342.603759	1036.740657	414.822289	-430.819233	958.971297	307.389564	-443.439448	1024.036030	225.322484	-392.939927	374.355996	662.662611	-347.240133	280.777966	476.523587	-262.300820	294.898143	561.562880	-215.945776	919.313800	 90.272164	-326.214129	1146.625986	 71.967831	-346.259288	1081.346631	 51.718539	-412.582633	879.244672	1529.835922	-515.017423	947.558159	1525.355588	-204.906092	987.071002	1459.640950	-348.441037	876.700603	1556.067253	-352.717716	794.113487	1503.708017	-501.337079	889.978075	1400.187858	-99.933959	801.258231	1367.811233	-100.691444	802.604608	1317.287652	-51.098819	805.287586	1249.120885	-22.981840	757.815315	1239.511242	-98.593907	758.169485	1437.894415	-557.264112	694.740523	1377.838497	-512.871256	671.110130	1339.906274	-572.797332	638.009492	1265.832793	-596.451908	644.664791	1252.722519	-507.843420	844.649868	1185.023790	-53.476790	999.568248	1181.492135	-181.815742	990.867070	1121.566663	-151.631918	702.346650	1191.580041	-585.915714	879.178277	1201.065779	-575.439951	861.738634	1137.029313	-592.112700	913.376333	1040.998061	-455.086428	
191	  1.910000	934.547066	1019.807093	-223.619268	756.722441	1077.548546	-372.181952	768.867191	1067.796728	-285.216263	815.938745	757.962764	-185.164756	883.831904	681.719031	-210.019890	808.412911	592.248226	-223.511528	847.136629	818.936832	-502.409274	955.574244	737.934265	-492.699968	937.732035	628.371371	-475.780565	681.385062	475.347932	-272.065536	635.579325	534.787156	-234.181599	509.514711	543.002293	-276.402158	418.716456	617.918515	-264.758005	424.265605	577.307166	-340.185692	1020.038102	405.971895	-424.130314	932.622417	305.939543	-438.412853	989.183985	219.244364	-383.959758	408.353240	663.902410	-342.951696	312.379395	477.222769	-262.593880	328.284944	560.768971	-213.785865	869.880838	 89.078079	-319.753989	1098.543686	 69.005617	-342.482037	1031.905578	 54.551931	-408.705577	882.572077	1519.878387	-517.237575	944.473318	1516.277034	-204.086519	987.505560	1449.744910	-347.438746	876.640871	1546.962230	-354.642661	797.570795	1490.860765	-506.493062	882.604205	1390.666143	-99.938892	793.152483	1360.033548	-102.983232	792.390552	1310.390286	-52.543800	793.037393	1242.630252	-22.665525	748.965896	1232.799145	-99.927011	764.647623	1421.309623	-564.591663	700.648103	1360.078569	-521.779669	681.094846	1320.709192	-582.199539	650.896113	1247.415036	-606.605002	654.846880	1234.031965	-518.213210	831.513212	1175.970488	-50.233843	990.638073	1160.630401	-172.171389	979.298153	1102.690251	-139.575243	715.554195	1173.919039	-594.241088	891.726398	1184.443831	-577.888010	875.218843	1120.645493	-596.347670	908.464294	1033.071090	-456.748874	
192	  1.920000	930.593237	1012.011385	-222.313181	750.769754	1072.462656	-371.250465	765.673845	1061.458414	-286.205357	826.590806	749.946606	-184.720544	899.388112	676.555380	-206.974971	831.692450	582.695972	-220.293875	841.093519	815.279355	-503.861867	948.050186	730.778632	-493.887207	929.663679	622.861115	-474.013729	713.023326	469.674873	-270.146425	668.148667	527.898316	-230.745175	542.504277	537.964176	-273.734952	451.925230	613.027189	-261.024699	457.832390	574.743373	-337.492137	1002.056982	401.175867	-418.328812	905.238089	308.658817	-434.355294	954.213518	217.815750	-377.795777	441.451871	661.489695	-337.905313	346.368313	471.917737	-263.888047	362.347075	553.823145	-211.916431	821.530442	 90.943663	-314.999328	1050.819369	 68.107416	-338.854618	983.573236	 56.379610	-404.463529	886.708816	1511.153957	-519.639584	940.939124	1508.519471	-203.331105	987.676132	1440.856880	-346.074659	876.519571	1539.021035	-356.794157	801.683973	1480.330073	-512.246773	874.586384	1381.769617	-100.090986	784.188688	1352.748591	-105.662627	781.208033	1303.930827	-54.680855	780.200263	1236.831988	-23.505182	739.264749	1226.376303	-102.117886	772.976882	1405.735532	-571.608935	707.471702	1343.186916	-530.835339	692.526133	1302.242883	-591.737960	666.381644	1229.590086	-616.671707	666.760478	1215.787738	-528.677048	817.425672	1167.774874	-47.686047	980.137842	1140.117769	-161.938704	966.067010	1084.354305	-126.814299	730.843811	1157.093386	-602.541365	906.048543	1169.096511	-579.974934	890.715650	1105.264914	-599.503578	901.925902	1026.456499	-457.201214	
193	  1.930000	925.549670	1005.670940	-220.548879	743.706828	1068.415925	-368.676618	760.604571	1056.928959	-284.911415	838.128113	745.416302	-184.109451	916.259321	675.992480	-204.451750	857.395770	577.781843	-217.542869	832.542549	812.549063	-503.870529	937.505027	725.621875	-494.666305	918.284485	618.502690	-472.090746	747.047243	466.151242	-269.292596	702.196617	522.269337	-227.830413	576.500202	531.338284	-271.282052	484.007736	604.593465	-256.947787	491.086878	568.928439	-334.536830	981.761469	397.315022	-414.433758	877.889219	311.548953	-432.673736	918.872707	217.535317	-375.314893	471.860794	655.611444	-332.264278	382.702430	460.666575	-265.482221	396.459747	541.015725	-210.070063	774.558550	 93.571255	-312.721914	1003.815196	 67.046883	-336.296336	936.221214	 56.526676	-401.664118	891.880798	1504.057095	-521.903988	937.183107	1502.604042	-202.574720	987.208562	1433.955605	-344.246087	876.509991	1533.372103	-358.627140	806.648825	1472.731062	-518.194321	866.179209	1374.993994	-100.432087	774.872144	1347.052636	-108.946979	769.715315	1298.849424	-57.672499	767.440922	1232.616574	-25.798629	729.105842	1221.197766	-105.381568	783.072009	1392.631146	-577.307440	715.245111	1328.053560	-539.784296	705.531269	1285.631784	-601.052043	684.546499	1213.125305	-626.387779	680.246284	1198.884836	-538.750355	802.846904	1161.294270	-46.060834	968.262865	1121.076086	-151.398881	951.035392	1067.574133	-114.086442	748.669587	1142.017303	-610.015037	922.413703	1156.393751	-580.957648	908.541847	1092.216030	-600.714109	894.452134	1020.884235	-456.153415	
194	  1.940000	920.331972	1001.021115	-218.993956	737.236850	1065.146229	-365.656418	754.734287	1054.158196	-282.206533	850.556716	744.690641	-183.018197	934.906560	681.282977	-203.077067	885.268813	578.847951	-215.192301	821.184619	808.749995	-502.175799	923.837952	720.899610	-494.451307	903.046445	613.611414	-470.439104	782.710844	465.132173	-269.369364	736.634772	518.391966	-225.749434	610.550330	523.706248	-269.108742	514.341481	592.981611	-252.707838	523.259096	560.105547	-331.478395	957.912003	391.100026	-411.998418	849.793240	311.326223	-432.714897	881.776171	215.392672	-374.741757	498.782393	646.101269	-326.307754	421.433231	443.995759	-266.893631	430.559171	522.874239	-208.135706	727.722182	 95.181057	-312.445404	956.661891	 65.642435	-335.432190	888.841034	 55.957612	-401.097634	897.743113	1499.003764	-523.329868	933.245151	1498.496147	-201.715698	985.988829	1429.306514	-342.036198	876.515449	1530.226957	-359.654257	812.288042	1467.776472	-523.418066	857.640524	1371.193127	-101.004722	765.826503	1343.912972	-112.898942	758.554541	1296.071040	-61.436088	754.938490	1230.706035	-29.150767	718.858216	1218.325774	-109.472112	794.076820	1383.014091	-581.171671	723.872622	1315.632322	-548.451535	720.154355	1271.950926	-609.676679	704.787398	1199.156654	-635.272114	694.679218	1184.619269	-547.804081	788.060722	1157.210388	-45.343283	955.246465	1105.162392	-141.086319	934.318179	1053.788214	-102.481802	769.050194	1129.886767	-615.568619	940.490979	1148.126378	-579.701233	928.542599	1083.380961	-599.048389	887.671165	1016.152140	-454.932781	
195	  1.950000	916.189899	998.054748	-218.844581	733.317808	1062.885399	-364.345084	750.078239	1053.091032	-280.486825	863.806956	747.450419	-181.536928	954.798691	692.077562	-203.087299	914.257960	585.688932	-213.155774	808.552082	803.726186	-499.793283	908.402129	714.725762	-493.696251	884.658830	607.271601	-469.127477	819.049441	466.489345	-269.719157	770.504464	516.060015	-224.420232	644.013626	515.321094	-267.250529	542.980736	578.329117	-248.596163	554.234166	548.406760	-328.480788	929.939949	382.015735	-410.327427	819.021151	307.979490	-432.837142	842.219535	211.244269	-374.216103	522.672683	632.613601	-320.424077	462.579963	423.007802	-267.869109	465.011586	500.309816	-206.237660	680.365335	 95.885133	-312.965076	908.960076	 64.524767	-335.897815	840.994761	 55.535525	-402.016441	903.381080	1496.396685	-523.400215	928.943087	1495.921243	-200.697363	984.233359	1426.629959	-339.678424	876.141897	1528.855548	-359.769770	817.891228	1464.966189	-527.134382	849.036723	1370.190975	-101.740016	757.295274	1343.692617	-117.179055	747.845905	1296.080429	-65.549531	742.262260	1231.398406	-32.758678	708.505923	1218.428084	-113.810229	804.837375	1377.145178	-583.719399	733.120940	1306.790765	-556.650541	736.023917	1261.967068	-617.143272	725.840857	1188.796596	-642.568966	709.315067	1174.221881	-555.250893	773.016720	1155.894739	-45.399758	941.455465	1094.196217	-131.694311	916.515079	1044.451048	-93.172398	791.159464	1121.885109	-618.477344	959.160695	1146.072067	-575.373435	949.921113	1080.681641	-594.025826	883.131884	1012.469603	-455.382324	
196	  1.960000	913.819540	997.028048	-220.838685	732.546366	1062.138357	-365.752846	747.946820	1053.737626	-281.339004	877.431627	753.163860	-180.035832	974.355494	706.781964	-204.077972	942.799749	597.022582	-211.451748	796.907756	799.306848	-498.148471	893.038572	706.765895	-492.864200	864.455967	600.287166	-468.051019	855.159724	470.030534	-269.608537	803.424206	514.953145	-223.491737	676.836865	506.145699	-265.733058	570.564565	560.647625	-244.911492	584.418469	533.823305	-325.598100	898.207764	372.287143	-409.359332	784.338826	304.168966	-432.143681	800.656093	207.212284	-373.378239	544.766798	614.935079	-314.988651	505.970278	399.039803	-268.321045	500.335603	474.414151	-204.561277	632.866363	 97.421130	-313.147151	860.758796	 63.900463	-336.624931	792.707395	 55.453498	-403.011293	907.928232	1496.437378	-522.253137	924.092364	1494.744158	-199.561862	982.288740	1425.639921	-337.369982	875.106055	1528.506498	-359.302686	822.710067	1464.146820	-529.313640	840.205352	1371.226183	-102.470886	748.888326	1346.092608	-121.150685	737.123149	1298.742229	-69.436940	728.859331	1234.571680	-36.011552	697.623492	1221.455975	-117.870821	814.662734	1374.736700	-586.041708	742.764705	1301.924128	-564.099084	752.246483	1255.899927	-623.074110	746.257649	1182.538693	-647.666291	723.658909	1168.205133	-560.766521	757.582892	1157.485409	-46.122895	927.399696	1089.441966	-123.874805	898.655256	1040.490579	-86.947347	813.469221	1118.740363	-618.785369	976.847056	1151.205838	-568.015957	971.402688	1085.229345	-585.957210	881.279937	1010.143808	-457.909086	
